<svg xmlns="http://www.w3.org/2000/svg" viewBox="0 0 1140 330" role="img"><title>coupling</title><defs><marker id="arrow-42affa" viewBox="0 0 10 10" refX="9" refY="5" markerWidth="7" markerHeight="7" orient="auto-start-reverse"><path d="M0 0L10 5L0 10Z" fill="#42affa"/></marker><marker id="arrow-ffbf69" viewBox="0 0 10 10" refX="9" refY="5" markerWidth="7" markerHeight="7" orient="auto-start-reverse"><path d="M0 0L10 5L0 10Z" fill="#ffbf69"/></marker><marker id="arrow-aab7c3" viewBox="0 0 10 10" refX="9" refY="5" markerWidth="7" markerHeight="7" orient="auto-start-reverse"><path d="M0 0L10 5L0 10Z" fill="#aab7c3"/></marker></defs><g font-family="PingFang SC, Microsoft YaHei, sans-serif"><text x="280" y="28" text-anchor="middle" fill="#f5f7fa" font-size="25">存储与计算分离</text><text x="860" y="28" text-anchor="middle" fill="#42affa" font-size="25">存内计算</text><g transform="translate(0,25)"><rect x="5" y="203" width="115" height="54" rx="10" fill="#20272d" stroke="#aab7c3" stroke-width="2"/><text x="62.5" y="238.0" text-anchor="middle" fill="#f5f7fa" font-size="22">输入</text><rect x="440" y="203" width="115" height="54" rx="10" fill="#20272d" stroke="#aab7c3" stroke-width="2"/><text x="497.5" y="238.0" text-anchor="middle" fill="#f5f7fa" font-size="22">输出</text><path d="M120 230H165" fill="none" stroke="#42affa" stroke-width="3" marker-end="url(#arrow-42affa)"/><path d="M395 230H435" fill="none" stroke="#42affa" stroke-width="3" marker-end="url(#arrow-42affa)"/><rect x="170" y="35" width="225" height="70" rx="10" fill="#20272d" stroke="#42affa" stroke-width="2"/><text x="282.5" y="78.0" text-anchor="middle" fill="#f5f7fa" font-size="22">存储器</text><rect x="170" y="195" width="225" height="70" rx="10" fill="#20272d" stroke="#42affa" stroke-width="2"/><text x="282.5" y="238.0" text-anchor="middle" fill="#f5f7fa" font-size="22">处理器</text><path d="M225 110V190" fill="none" stroke="#ffbf69" stroke-width="3" marker-end="url(#arrow-ffbf69)"/><path d="M340 190V110" fill="none" stroke="#ffbf69" stroke-width="3" marker-end="url(#arrow-ffbf69)"/><text x="282" y="149" text-anchor="middle" fill="#ffbf69" font-size="21">数据</text></g><g transform="translate(580,25)"><rect x="5" y="203" width="115" height="54" rx="10" fill="#20272d" stroke="#aab7c3" stroke-width="2"/><text x="62.5" y="238.0" text-anchor="middle" fill="#f5f7fa" font-size="22">输入</text><rect x="440" y="203" width="115" height="54" rx="10" fill="#20272d" stroke="#aab7c3" stroke-width="2"/><text x="497.5" y="238.0" text-anchor="middle" fill="#f5f7fa" font-size="22">输出</text><path d="M120 230H165" fill="none" stroke="#42affa" stroke-width="3" marker-end="url(#arrow-42affa)"/><path d="M395 230H435" fill="none" stroke="#42affa" stroke-width="3" marker-end="url(#arrow-42affa)"/><rect x="170" y="35" width="225" height="230" rx="12" fill="#20272d" stroke="#ffbf69" stroke-width="3"/><text x="282" y="73" text-anchor="middle" fill="#f5f7fa" font-size="23">存内计算存储器</text><rect x="190" y="97" width="55" height="38" rx="5" fill="#263b43" stroke="#42affa"/><text x="217.5" y="122" text-anchor="middle" fill="#42affa" font-size="17">存·算</text><rect x="255" y="97" width="55" height="38" rx="5" fill="#263b43" stroke="#42affa"/><text x="282.5" y="122" text-anchor="middle" fill="#42affa" font-size="17">存·算</text><rect x="320" y="97" width="55" height="38" rx="5" fill="#263b43" stroke="#42affa"/><text x="347.5" y="122" text-anchor="middle" fill="#42affa" font-size="17">存·算</text><rect x="190" y="147" width="55" height="38" rx="5" fill="#263b43" stroke="#42affa"/><text x="217.5" y="172" text-anchor="middle" fill="#42affa" font-size="17">存·算</text><rect x="255" y="147" width="55" height="38" rx="5" fill="#263b43" stroke="#42affa"/><text x="282.5" y="172" text-anchor="middle" fill="#42affa" font-size="17">存·算</text><rect x="320" y="147" width="55" height="38" rx="5" fill="#263b43" stroke="#42affa"/><text x="347.5" y="172" text-anchor="middle" fill="#42affa" font-size="17">存·算</text><text x="282" y="225" text-anchor="middle" fill="#ffbf69" font-size="20">数据存储 + 计算</text></g><path d="M570 40V310" stroke="#46515a" stroke-dasharray="4 6"/></g></svg>