<svg xmlns="http://www.w3.org/2000/svg" xmlns:xlink="http://www.w3.org/1999/xlink" viewBox="0 0 720 380" role="img"><style>text{font-family:Arial,sans-serif;fill:#203441}.small{font-size:17px;fill:#607582}.label{font-size:22px;font-weight:600}.blue{fill:#00649e}</style><defs><marker id="a" markerWidth="9" markerHeight="9" refX="8" refY="4.5" orient="auto-start-reverse"><path d="M0 0L9 4.5L0 9" fill="none" stroke="#00649e" stroke-width="1.5"/></marker><marker id="amber" markerWidth="9" markerHeight="9" refX="8" refY="4.5" orient="auto-start-reverse"><path d="M0 0L9 4.5L0 9" fill="none" stroke="#b76b29" stroke-width="1.5"/></marker></defs><text x="72" y="24" font-size="16" fill="#607582">Accuracy (%)</text>
<text x="504" y="24" font-size="14" fill="#607582">parameters</text>
<path d="M72 310.0H496" stroke="#e9eff3" stroke-width="1"/><path d="M72 265.0H496" stroke="#e9eff3" stroke-width="1"/><path d="M72 220.0H496" stroke="#e9eff3" stroke-width="1"/><path d="M72 175.0H496" stroke="#e9eff3" stroke-width="1"/><path d="M72 130.0H496" stroke="#e9eff3" stroke-width="1"/><path d="M72 85.0H496" stroke="#e9eff3" stroke-width="1"/><path d="M72 40.0H496" stroke="#e9eff3" stroke-width="1"/><path d="M72.0 40V310" stroke="#e9eff3" stroke-width="1"/><path d="M156.8 40V310" stroke="#e9eff3" stroke-width="1"/><path d="M241.6 40V310" stroke="#e9eff3" stroke-width="1"/><path d="M326.4 40V310" stroke="#e9eff3" stroke-width="1"/><path d="M411.2 40V310" stroke="#e9eff3" stroke-width="1"/><path d="M496.0 40V310" stroke="#e9eff3" stroke-width="1"/>
<path d="M72 40V310M72 310H496" fill="none" stroke="#d5e2e9" stroke-width="2"/>
<text x="62" y="315.0" font-size="15" fill="#607582" text-anchor="end">78</text><text x="62" y="270.0" font-size="15" fill="#607582" text-anchor="end">80</text><text x="62" y="225.0" font-size="15" fill="#607582" text-anchor="end">82</text><text x="62" y="180.0" font-size="15" fill="#607582" text-anchor="end">84</text><text x="62" y="135.0" font-size="15" fill="#607582" text-anchor="end">86</text><text x="62" y="90.0" font-size="15" fill="#607582" text-anchor="end">88</text><text x="62" y="45.0" font-size="15" fill="#607582" text-anchor="end">90</text><text x="72.0" y="330" font-size="15" fill="#607582" text-anchor="middle">0</text><text x="156.8" y="330" font-size="15" fill="#607582" text-anchor="middle">10</text><text x="241.6" y="330" font-size="15" fill="#607582" text-anchor="middle">20</text><text x="326.4" y="330" font-size="15" fill="#607582" text-anchor="middle">30</text><text x="411.2" y="330" font-size="15" fill="#607582" text-anchor="middle">40</text><text x="496.0" y="330" font-size="15" fill="#607582" text-anchor="middle">50</text>
<text x="284" y="358" font-size="16" fill="#607582" text-anchor="middle">Weight error (%)</text>
<path d="M80.5 112.4L114.4 118.3L148.3 126.4L182.2 137.4L216.2 143.5L250.1 158.6L292.5 175.0L334.9 213.7L377.3 241.6L419.7 293.8L462.1 293.4" fill="none" stroke="#b76b29" stroke-width="3" stroke-linejoin="round"/><circle cx="80.5" cy="112.4" r="4.6" fill="#b76b29"/><circle cx="114.4" cy="118.3" r="4.6" fill="#b76b29"/><circle cx="148.3" cy="126.4" r="4.6" fill="#b76b29"/><circle cx="182.2" cy="137.4" r="4.6" fill="#b76b29"/><circle cx="216.2" cy="143.5" r="4.6" fill="#b76b29"/><circle cx="250.1" cy="158.6" r="4.6" fill="#b76b29"/><circle cx="292.5" cy="175.0" r="4.6" fill="#b76b29"/><circle cx="334.9" cy="213.7" r="4.6" fill="#b76b29"/><circle cx="377.3" cy="241.6" r="4.6" fill="#b76b29"/><circle cx="419.7" cy="293.8" r="4.6" fill="#b76b29"/><circle cx="462.1" cy="293.4" r="4.6" fill="#b76b29"/><path d="M471.1 293.4H496" stroke="#b76b29" stroke-width="1.6"/><text x="504" y="298.4" font-size="16">26 506</text><path d="M80.5 86.6L114.4 89.5L148.3 94.0L182.2 97.2L216.2 107.1L250.1 110.9L292.5 112.2L334.9 119.9L377.3 142.6L419.7 149.1L462.1 171.8" fill="none" stroke="#7ca0b3" stroke-width="3" stroke-linejoin="round"/><circle cx="80.5" cy="86.6" r="4.6" fill="#7ca0b3"/><circle cx="114.4" cy="89.5" r="4.6" fill="#7ca0b3"/><circle cx="148.3" cy="94.0" r="4.6" fill="#7ca0b3"/><circle cx="182.2" cy="97.2" r="4.6" fill="#7ca0b3"/><circle cx="216.2" cy="107.1" r="4.6" fill="#7ca0b3"/><circle cx="250.1" cy="110.9" r="4.6" fill="#7ca0b3"/><circle cx="292.5" cy="112.2" r="4.6" fill="#7ca0b3"/><circle cx="334.9" cy="119.9" r="4.6" fill="#7ca0b3"/><circle cx="377.3" cy="142.6" r="4.6" fill="#7ca0b3"/><circle cx="419.7" cy="149.1" r="4.6" fill="#7ca0b3"/><circle cx="462.1" cy="171.8" r="4.6" fill="#7ca0b3"/><path d="M471.1 171.8H496" stroke="#7ca0b3" stroke-width="1.6"/><text x="504" y="176.8" font-size="16">55 050</text><path d="M80.5 75.1L114.4 76.9L148.3 80.5L182.2 80.3L216.2 85.7L250.1 87.5L292.5 86.1L334.9 93.3L377.3 95.8L419.7 103.0L462.1 97.8" fill="none" stroke="#00649e" stroke-width="3" stroke-linejoin="round"/><circle cx="80.5" cy="75.1" r="4.6" fill="#00649e"/><circle cx="114.4" cy="76.9" r="4.6" fill="#00649e"/><circle cx="148.3" cy="80.5" r="4.6" fill="#00649e"/><circle cx="182.2" cy="80.3" r="4.6" fill="#00649e"/><circle cx="216.2" cy="85.7" r="4.6" fill="#00649e"/><circle cx="250.1" cy="87.5" r="4.6" fill="#00649e"/><circle cx="292.5" cy="86.1" r="4.6" fill="#00649e"/><circle cx="334.9" cy="93.3" r="4.6" fill="#00649e"/><circle cx="377.3" cy="95.8" r="4.6" fill="#00649e"/><circle cx="419.7" cy="103.0" r="4.6" fill="#00649e"/><circle cx="462.1" cy="97.8" r="4.6" fill="#00649e"/><path d="M471.1 97.8H496" stroke="#00649e" stroke-width="1.6"/><text x="504" y="102.8" font-size="16">1 863 690</text>
<text x="392" y="72" font-size="15" fill="#00649e" text-anchor="middle">&#8722;1 point over the full range</text>
<text x="318" y="272" font-size="15" fill="#b76b29" text-anchor="middle">&#8722;8 points</text></svg>