<svg xmlns="http://www.w3.org/2000/svg" xmlns:xlink="http://www.w3.org/1999/xlink" viewBox="0 0 460 200" role="img"><style>text{font-family:Arial,sans-serif;fill:#203441}.small{font-size:17px;fill:#607582}.label{font-size:22px;font-weight:600}.blue{fill:#00649e}</style><defs><marker id="a" markerWidth="9" markerHeight="9" refX="8" refY="4.5" orient="auto-start-reverse"><path d="M0 0L9 4.5L0 9" fill="none" stroke="#00649e" stroke-width="1.5"/></marker><marker id="amber" markerWidth="9" markerHeight="9" refX="8" refY="4.5" orient="auto-start-reverse"><path d="M0 0L9 4.5L0 9" fill="none" stroke="#b76b29" stroke-width="1.5"/></marker></defs><rect x="24" y="6" width="400" height="132" rx="12" fill="#eff5f8" stroke="#00649e" stroke-width="2"/>
<text x="40" y="34" font-size="17" fill="#607582">DRAM array — one transistor, one capacitor</text>
<g><rect x="44" y="46" width="20" height="13" rx="2" fill="#fff4e8" stroke="#b76b29" stroke-width="1.6"/><rect x="76" y="46" width="20" height="13" rx="2" fill="#fff4e8" stroke="#b76b29" stroke-width="1.6"/><rect x="108" y="46" width="20" height="13" rx="2" fill="#fff4e8" stroke="#b76b29" stroke-width="1.6"/><rect x="140" y="46" width="20" height="13" rx="2" fill="#fff4e8" stroke="#b76b29" stroke-width="1.6"/><rect x="172" y="46" width="20" height="13" rx="2" fill="#fff4e8" stroke="#b76b29" stroke-width="1.6"/><rect x="204" y="46" width="20" height="13" rx="2" fill="#fff4e8" stroke="#b76b29" stroke-width="1.6"/><rect x="236" y="46" width="20" height="13" rx="2" fill="#fff4e8" stroke="#b76b29" stroke-width="1.6"/><rect x="268" y="46" width="20" height="13" rx="2" fill="#fff4e8" stroke="#b76b29" stroke-width="1.6"/><rect x="300" y="46" width="20" height="13" rx="2" fill="#fff4e8" stroke="#b76b29" stroke-width="1.6"/><rect x="332" y="46" width="20" height="13" rx="2" fill="#fff4e8" stroke="#b76b29" stroke-width="1.6"/><rect x="364" y="46" width="20" height="13" rx="2" fill="#fff4e8" stroke="#b76b29" stroke-width="1.6"/><rect x="396" y="46" width="20" height="13" rx="2" fill="#fff4e8" stroke="#b76b29" stroke-width="1.6"/><rect x="44" y="66" width="20" height="13" rx="2" fill="#fff4e8" stroke="#b76b29" stroke-width="1.6"/><rect x="76" y="66" width="20" height="13" rx="2" fill="#fff4e8" stroke="#b76b29" stroke-width="1.6"/><rect x="108" y="66" width="20" height="13" rx="2" fill="#fff4e8" stroke="#b76b29" stroke-width="1.6"/><rect x="140" y="66" width="20" height="13" rx="2" fill="#fff4e8" stroke="#b76b29" stroke-width="1.6"/><rect x="172" y="66" width="20" height="13" rx="2" fill="#fff4e8" stroke="#b76b29" stroke-width="1.6"/><rect x="204" y="66" width="20" height="13" rx="2" fill="#fff4e8" stroke="#b76b29" stroke-width="1.6"/><rect x="236" y="66" width="20" height="13" rx="2" fill="#fff4e8" stroke="#b76b29" stroke-width="1.6"/><rect x="268" y="66" width="20" height="13" rx="2" fill="#fff4e8" stroke="#b76b29" stroke-width="1.6"/><rect x="300" y="66" width="20" height="13" rx="2" fill="#fff4e8" stroke="#b76b29" stroke-width="1.6"/><rect x="332" y="66" width="20" height="13" rx="2" fill="#fff4e8" stroke="#b76b29" stroke-width="1.6"/><rect x="364" y="66" width="20" height="13" rx="2" fill="#fff4e8" stroke="#b76b29" stroke-width="1.6"/><rect x="396" y="66" width="20" height="13" rx="2" fill="#fff4e8" stroke="#b76b29" stroke-width="1.6"/><rect x="44" y="86" width="20" height="13" rx="2" fill="#fff" stroke="#00649e" stroke-width="1.1"/><rect x="76" y="86" width="20" height="13" rx="2" fill="#fff" stroke="#00649e" stroke-width="1.1"/><rect x="108" y="86" width="20" height="13" rx="2" fill="#fff" stroke="#00649e" stroke-width="1.1"/><rect x="140" y="86" width="20" height="13" rx="2" fill="#fff" stroke="#00649e" stroke-width="1.1"/><rect x="172" y="86" width="20" height="13" rx="2" fill="#fff" stroke="#00649e" stroke-width="1.1"/><rect x="204" y="86" width="20" height="13" rx="2" fill="#fff" stroke="#00649e" stroke-width="1.1"/><rect x="236" y="86" width="20" height="13" rx="2" fill="#fff" stroke="#00649e" stroke-width="1.1"/><rect x="268" y="86" width="20" height="13" rx="2" fill="#fff" stroke="#00649e" stroke-width="1.1"/><rect x="300" y="86" width="20" height="13" rx="2" fill="#fff" stroke="#00649e" stroke-width="1.1"/><rect x="332" y="86" width="20" height="13" rx="2" fill="#fff" stroke="#00649e" stroke-width="1.1"/><rect x="364" y="86" width="20" height="13" rx="2" fill="#fff" stroke="#00649e" stroke-width="1.1"/><rect x="396" y="86" width="20" height="13" rx="2" fill="#fff" stroke="#00649e" stroke-width="1.1"/><rect x="44" y="106" width="20" height="13" rx="2" fill="#fff" stroke="#00649e" stroke-width="1.1"/><rect x="76" y="106" width="20" height="13" rx="2" fill="#fff" stroke="#00649e" stroke-width="1.1"/><rect x="108" y="106" width="20" height="13" rx="2" fill="#fff" stroke="#00649e" stroke-width="1.1"/><rect x="140" y="106" width="20" height="13" rx="2" fill="#fff" stroke="#00649e" stroke-width="1.1"/><rect x="172" y="106" width="20" height="13" rx="2" fill="#fff" stroke="#00649e" stroke-width="1.1"/><rect x="204" y="106" width="20" height="13" rx="2" fill="#fff" stroke="#00649e" stroke-width="1.1"/><rect x="236" y="106" width="20" height="13" rx="2" fill="#fff" stroke="#00649e" stroke-width="1.1"/><rect x="268" y="106" width="20" height="13" rx="2" fill="#fff" stroke="#00649e" stroke-width="1.1"/><rect x="300" y="106" width="20" height="13" rx="2" fill="#fff" stroke="#00649e" stroke-width="1.1"/><rect x="332" y="106" width="20" height="13" rx="2" fill="#fff" stroke="#00649e" stroke-width="1.1"/><rect x="364" y="106" width="20" height="13" rx="2" fill="#fff" stroke="#00649e" stroke-width="1.1"/><rect x="396" y="106" width="20" height="13" rx="2" fill="#fff" stroke="#00649e" stroke-width="1.1"/></g>
<path d="M40 52H12V177H80" fill="none" stroke="#b76b29" stroke-width="3" marker-end="url(#amber)"/>
<rect x="86" y="160" width="300" height="34" rx="8" fill="#fff4e8" stroke="#b76b29" stroke-width="2"/>
<text x="236" y="183" text-anchor="middle" font-size="17" font-weight="600" fill="#b76b29">activate several rows at once</text></svg>